<?xml version="1.0" standalone="no"?>
<!DOCTYPE svg PUBLIC "-//W3C//DTD SVG 20010904//EN"
 "http://www.w3.org/TR/2001/REC-SVG-20010904/DTD/svg10.dtd">
<svg version="1.0" xmlns="http://www.w3.org/2000/svg"
 width="360.000000pt" height="360.000000pt" viewBox="0 0 360.000000 360.000000"
 preserveAspectRatio="xMidYMid meet">
<metadata>
Created by potrace 1.11, written by Peter Selinger 2001-2013
</metadata>
<g transform="translate(0.000000,360.000000) scale(0.100000,-0.100000)"
fill="#000000" stroke="none">
<path d="M2605 3592 c-9 -9 8 -31 19 -25 6 4 5 -1 -3 -10 -15 -19 -26 -23 -15
-5 4 6 3 8 -4 5 -5 -4 -8 -17 -4 -29 4 -15 2 -19 -8 -13 -10 6 -10 4 -2 -11 8
-14 6 -21 -6 -32 -10 -7 -11 -11 -4 -7 6 3 12 1 12 -4 0 -6 -4 -11 -10 -11 -5
0 -10 -12 -10 -26 0 -14 -4 -23 -10 -19 -5 3 -10 1 -10 -4 0 -6 5 -11 11 -11
5 0 7 -5 4 -10 -4 -6 -12 -7 -18 -3 -7 4 -6 -1 2 -11 11 -13 11 -16 1 -14 -7
2 -15 -3 -18 -11 -3 -8 0 -11 7 -7 7 4 9 2 5 -8 -3 -8 -12 -17 -19 -20 -8 -3
-11 -13 -8 -27 4 -15 3 -20 -5 -15 -8 5 -12 -2 -12 -18 0 -14 -4 -26 -10 -26
-5 0 -9 -3 -8 -7 4 -16 -37 -93 -49 -93 -7 0 -13 -8 -13 -17 0 -15 -2 -16 -10
-3 -9 13 -10 13 -10 0 -1 -12 -4 -11 -15 4 -8 11 -11 24 -6 30 16 21 20 45 9
52 -7 5 -8 2 -4 -7 6 -10 4 -10 -6 1 -16 18 -58 23 -52 5 3 -6 -2 -12 -10 -12
-8 0 -12 5 -9 11 4 6 -1 5 -10 -2 -9 -8 -20 -11 -25 -8 -6 3 -15 -1 -22 -9 -7
-8 -18 -15 -24 -15 -6 0 -20 -10 -30 -21 -13 -16 -20 -18 -26 -10 -5 9 -9 6
-13 -8 -3 -12 -12 -21 -21 -21 -9 0 -16 -5 -16 -11 0 -5 -4 -7 -10 -4 -5 3 -7
0 -4 -9 3 -9 -2 -17 -15 -21 -12 -3 -21 -11 -21 -16 0 -5 -4 -9 -10 -9 -5 0
-10 8 -10 18 0 14 -2 15 -10 2 -8 -13 -10 -12 -10 3 0 21 -24 49 -34 40 -3 -4
-6 1 -6 11 0 11 -4 14 -12 10 -8 -5 -9 -2 -5 9 4 11 1 17 -8 17 -7 0 -17 5
-21 12 -4 7 -3 8 4 4 8 -5 10 -2 6 8 -3 9 -12 16 -20 16 -8 0 -11 6 -7 17 5
12 3 14 -7 8 -10 -6 -12 -4 -7 8 4 11 2 14 -8 11 -9 -4 -12 1 -10 13 1 10 -7
28 -18 41 -11 12 -16 22 -11 22 5 0 3 4 -4 9 -8 5 -15 20 -15 33 -1 16 -7 24
-15 21 -8 -4 -10 0 -6 11 3 9 1 16 -5 16 -6 0 -11 5 -11 11 0 5 5 7 12 3 7 -4
8 -3 4 4 -4 7 -15 12 -24 13 -14 0 -13 2 3 9 17 7 17 9 3 9 -10 1 -18 6 -18
12 0 5 -4 8 -10 4 -5 -3 -6 -13 -3 -22 5 -12 3 -14 -8 -8 -12 8 -12 6 0 -8 12
-15 12 -17 0 -12 -10 4 -15 -3 -16 -22 -6 -70 -12 -96 -24 -104 -12 -7 -11 -9
1 -9 9 0 11 -3 5 -8 -6 -4 -10 -14 -10 -22 1 -8 -2 -25 -7 -37 -4 -13 -3 -25
3 -28 13 -9 0 -27 -14 -19 -7 3 -3 -2 7 -10 15 -12 16 -16 5 -16 -8 0 -10 -3
-4 -8 15 -10 18 -42 4 -42 -8 0 -8 -4 -2 -12 5 -7 9 -32 9 -56 -1 -27 2 -41
10 -38 6 2 10 -6 9 -22 -1 -15 2 -35 8 -46 6 -13 6 -16 -2 -12 -14 9 -3 -23
16 -45 7 -9 11 -24 7 -33 -3 -9 -1 -16 5 -16 7 0 9 -10 7 -25 -3 -15 -1 -23 5
-20 5 4 6 11 3 17 -4 7 -2 8 5 4 6 -4 9 -11 6 -16 -3 -4 2 -13 10 -20 8 -7 12
-16 9 -21 -3 -5 0 -18 7 -30 6 -13 7 -19 1 -15 -6 3 -14 -4 -18 -16 -12 -36
-13 -49 -3 -42 16 10 10 -8 -8 -23 -11 -8 -12 -11 -3 -7 13 7 13 5 1 -9 -9
-12 -10 -17 -2 -17 7 0 9 -5 6 -10 -4 -6 -12 -7 -18 -3 -7 4 -6 0 2 -10 7 -9
11 -18 7 -18 -12 -3 -21 -6 -38 -13 -9 -4 -22 -5 -28 -1 -5 3 -13 -1 -16 -9
-3 -9 -15 -16 -26 -16 -12 0 -17 -4 -12 -12 5 -8 0 -9 -15 -5 -19 5 -20 3 -9
-11 10 -12 10 -14 1 -8 -8 4 -13 2 -13 -4 0 -6 -5 -8 -11 -5 -6 4 -13 -3 -16
-15 -3 -13 -11 -19 -20 -16 -8 3 -11 1 -8 -4 3 -6 2 -10 -4 -10 -6 0 -7 -7 -4
-17 4 -11 3 -14 -6 -9 -8 5 -14 1 -18 -13 -3 -11 -9 -19 -13 -16 -4 3 -10 -2
-13 -10 -4 -10 -1 -12 11 -9 15 5 15 4 0 -6 -10 -6 -18 -18 -18 -26 0 -8 -4
-13 -9 -10 -11 7 -23 -22 -14 -37 4 -6 0 -8 -11 -4 -14 6 -15 3 -6 -13 7 -13
7 -20 1 -20 -6 0 -8 -6 -5 -14 4 -11 12 -8 32 11 15 14 26 30 24 36 -2 6 5 4
14 -4 10 -8 15 -9 11 -3 -7 12 26 48 35 38 4 -3 15 -1 27 5 29 16 36 -4 9 -24
l-23 -17 23 7 c21 6 21 5 -5 -22 -15 -15 -32 -27 -36 -25 -5 1 -6 -2 -3 -7 4
-5 1 -13 -5 -16 -5 -4 -8 -13 -5 -21 3 -8 -1 -14 -11 -14 -13 0 -14 -2 -2 -17
10 -11 10 -14 2 -9 -9 5 -13 0 -13 -14 0 -12 -4 -19 -8 -16 -4 2 -9 -4 -9 -15
-1 -12 3 -17 10 -13 7 3 4 -1 -6 -9 -14 -11 -15 -16 -5 -20 9 -4 10 -6 1 -6
-7 -1 -10 -8 -6 -18 4 -9 2 -14 -3 -10 -5 3 -10 -9 -10 -27 0 -24 5 -32 19
-34 19 -1 19 -1 1 14 -11 9 -13 13 -7 9 7 -3 21 -1 30 4 14 8 15 10 3 11 -9 0
-11 3 -5 8 6 4 16 19 24 34 8 16 16 26 19 24 2 -3 14 6 26 20 16 19 24 22 36
13 13 -9 12 -10 -2 -5 -10 3 -20 1 -23 -5 -4 -5 -3 -9 2 -8 4 1 17 1 28 0 16
-1 17 -3 6 -10 -18 -12 -23 -41 -8 -41 7 0 7 -4 -2 -9 -8 -5 -11 -16 -7 -26 5
-15 4 -16 -9 -5 -14 11 -14 10 -5 -14 7 -20 7 -25 -2 -20 -8 5 -9 2 -5 -9 3
-10 3 -17 -2 -17 -4 0 -7 -10 -6 -22 1 -13 -2 -29 -8 -35 -6 -9 -6 -13 1 -13
6 0 8 -12 6 -27 -9 -53 -4 -80 13 -80 10 0 10 3 0 16 -10 12 -9 14 5 8 10 -3
17 -3 16 1 -3 13 14 62 22 62 4 0 12 10 19 23 7 14 10 15 6 3 -4 -14 -1 -17
11 -12 13 5 15 2 11 -14 -3 -11 -1 -20 3 -20 11 0 25 -40 21 -59 -2 -9 3 -12
14 -7 13 4 15 2 10 -14 -5 -15 -2 -18 15 -15 17 3 19 1 11 -8 -7 -9 -5 -13 8
-13 14 0 18 7 16 23 -1 13 2 23 7 23 5 0 6 5 3 10 -3 6 -1 10 5 10 7 0 10 6 8
12 -5 15 8 30 39 46 26 14 56 17 35 3 -10 -6 -8 -10 8 -14 l21 -6 -21 -21
c-17 -17 -19 -24 -9 -36 9 -11 9 -14 -1 -14 -7 0 -10 -7 -6 -16 3 -8 2 -13 -2
-10 -4 3 -14 -5 -22 -17 -12 -21 -12 -21 6 -7 16 13 15 10 -4 -23 -12 -21 -18
-35 -12 -32 6 3 7 -1 4 -9 -3 -9 -10 -16 -15 -16 -4 0 -6 -7 -3 -15 4 -8 1
-15 -6 -15 -6 0 -8 -4 -5 -10 3 -5 2 -10 -3 -10 -5 0 -9 -10 -8 -22 1 -15 -4
-22 -13 -20 -12 3 -12 1 0 -14 8 -10 9 -15 2 -11 -6 4 -14 3 -18 -3 -3 -5 0
-10 7 -10 9 -1 7 -5 -4 -14 -10 -7 -15 -16 -11 -19 3 -4 1 -7 -6 -7 -8 0 -11
-6 -7 -16 3 -9 2 -12 -5 -9 -6 4 -13 -2 -16 -14 -3 -12 -9 -21 -14 -21 -5 0
-6 -7 -3 -15 5 -11 2 -13 -10 -9 -12 5 -15 2 -10 -10 4 -10 -1 -18 -12 -23
-11 -4 -25 -14 -32 -22 -9 -10 -11 -11 -6 -2 5 10 3 12 -5 7 -7 -5 -10 -14 -7
-22 3 -8 2 -13 -2 -13 -20 3 -33 -2 -27 -11 3 -5 0 -7 -8 -4 -8 3 -18 0 -23
-7 -5 -8 -3 -10 6 -4 9 5 11 4 6 -3 -5 -9 -13 -9 -26 -2 -16 9 -18 7 -15 -10
2 -13 0 -18 -7 -14 -5 4 -14 0 -19 -7 -7 -11 -9 -11 -9 -1 0 8 -7 6 -21 -6
-13 -13 -32 -19 -54 -17 -19 1 -32 -2 -29 -7 3 -5 0 -8 -7 -7 -21 3 -50 -12
-43 -22 3 -5 -2 -9 -10 -9 -9 0 -16 -4 -16 -10 0 -5 -10 -10 -22 -10 -19 0
-20 -2 -8 -11 12 -9 11 -10 -7 -6 -15 3 -20 1 -16 -9 3 -8 0 -14 -6 -14 -7 0
-17 -13 -22 -30 -6 -16 -15 -27 -20 -24 -5 3 -9 -2 -9 -11 0 -9 -4 -13 -10
-10 -6 3 -7 -1 -4 -9 3 -9 2 -16 -3 -16 -4 0 -14 -9 -21 -21 -8 -12 -9 -19 -4
-15 5 3 9 -1 9 -8 0 -8 -7 -12 -15 -8 -10 3 -13 1 -8 -6 4 -7 3 -12 -2 -12 -5
0 -9 -10 -8 -22 0 -13 -4 -22 -9 -21 -14 2 -14 -40 -1 -49 7 -5 6 -8 -2 -8 -7
0 -10 -4 -7 -10 4 -6 -1 -7 -11 -3 -14 5 -16 3 -11 -11 5 -11 3 -15 -5 -10 -7
5 -9 2 -5 -9 4 -12 2 -14 -10 -10 -13 5 -15 2 -9 -12 4 -11 4 -16 0 -12 -4 4
-13 2 -20 -4 -8 -6 -20 -9 -29 -6 -8 4 -17 1 -21 -5 -5 -7 -2 -8 7 -3 12 8 12
6 0 -8 -12 -15 -37 -14 -27 1 5 10 -20 32 -28 25 -11 -12 -65 48 -61 68 2 11
0 17 -6 14 -5 -4 -9 1 -9 10 0 10 -5 13 -13 9 -9 -6 -9 -5 1 8 10 12 10 17 -1
27 -8 6 -18 7 -23 3 -4 -4 -2 1 5 11 11 14 11 17 0 17 -11 0 -11 2 1 10 13 8
12 10 -2 10 -10 0 -18 5 -18 11 0 5 6 7 13 4 6 -4 5 -1 -4 7 -9 7 -14 19 -12
26 3 6 0 12 -6 12 -5 0 -8 9 -6 20 2 11 1 20 -3 20 -4 0 -9 11 -10 26 -1 14
-7 34 -13 46 -8 15 -8 19 0 14 6 -4 11 -2 11 3 0 6 -4 11 -10 11 -5 0 -10 7
-10 16 0 9 5 12 12 8 7 -4 8 -3 4 4 -4 7 -15 12 -24 13 -11 0 -12 3 -4 6 6 2
12 11 12 19 0 10 -5 12 -12 8 -9 -5 -9 -2 1 9 10 13 10 17 1 17 -10 0 -10 3 0
15 9 11 9 15 1 15 -7 0 -9 5 -4 12 12 20 9 42 -7 56 -8 8 -9 11 -2 7 6 -3 12
-2 12 4 0 5 -6 12 -12 14 -10 4 -10 6 -1 6 7 1 10 8 7 16 -4 8 -11 12 -18 8
-6 -4 -5 1 3 10 7 9 10 17 7 17 -4 0 -3 8 3 17 7 13 5 21 -7 30 -16 11 -16 12
1 13 9 0 17 5 17 11 0 5 -4 8 -9 4 -5 -3 -12 -1 -16 5 -3 5 2 10 12 10 17 1
17 1 0 11 -16 9 -16 12 -2 32 13 19 13 23 -3 41 -9 11 -12 16 -6 13 16 -9 24
26 11 48 -7 14 -7 16 3 10 10 -6 12 -4 7 7 -3 9 -3 19 1 22 11 11 12 46 2 46
-6 0 -10 5 -10 11 0 5 4 8 8 5 5 -3 9 1 9 9 0 8 -5 11 -11 8 -6 -4 -5 1 3 10
9 11 10 17 2 17 -6 0 -11 5 -11 11 0 5 5 7 10 4 6 -3 10 -2 10 4 0 5 -6 12
-12 14 -8 3 -5 6 5 6 10 1 15 6 12 11 -3 5 -3 16 2 23 10 16 13 38 4 32 -4 -2
-8 2 -8 10 0 8 4 12 9 9 7 -5 10 14 11 74 0 12 4 22 9 22 5 0 6 5 3 10 -3 6
-2 10 3 10 5 0 8 10 7 23 -1 12 2 32 6 44 5 14 4 23 -4 27 -8 3 -7 5 3 5 10 1
16 14 17 42 2 23 7 47 13 54 6 8 6 15 -2 23 -8 8 -9 12 -1 12 6 0 9 9 6 20 -3
11 1 28 8 37 12 15 12 16 -4 10 -17 -6 -17 -5 -3 15 11 16 13 25 4 35 -8 9 -7
13 1 13 7 0 9 5 4 13 -11 18 -13 38 -2 31 5 -3 6 -10 3 -16 -4 -7 -2 -8 4 -4
9 5 9 13 1 27 -6 11 -7 28 -3 37 4 9 8 25 9 34 1 15 -1 15 -13 5 -13 -10 -14
-9 -4 10 16 29 15 46 0 37 -10 -6 -10 -4 0 8 18 22 24 78 8 72 -7 -3 -12 4
-12 15 0 14 4 17 11 11 8 -7 11 -3 11 13 -1 12 -8 27 -16 34 -9 8 -10 12 -3
13 8 0 12 35 3 35 -1 0 -3 8 -5 18 -2 9 1 17 7 17 5 0 3 7 -5 15 -9 8 -13 24
-10 35 3 12 0 20 -7 20 -10 0 -10 3 0 15 7 8 9 15 4 15 -5 0 -10 12 -11 26 0
15 -5 29 -11 33 -5 3 -8 14 -6 23 1 10 -2 20 -6 23 -5 3 -6 13 -3 22 4 11 3
14 -5 9 -8 -5 -12 3 -12 24 0 17 -3 29 -7 27 -5 -3 -9 9 -10 26 -1 17 -8 34
-15 39 -7 4 -9 8 -4 8 5 0 1 10 -10 22 -13 14 -14 19 -4 14 9 -5 8 -2 -2 7
-10 8 -15 17 -11 20 3 4 1 7 -5 7 -7 0 -11 3 -11 8 3 20 -2 32 -16 32 -8 0
-14 3 -14 8 3 20 -2 32 -15 32 -12 0 -30 33 -27 52 0 4 -6 5 -14 2 -13 -6 -20
6 -16 29 0 4 -3 7 -9 7 -5 0 -10 -5 -10 -11 0 -5 -4 -7 -10 -4 -5 3 -10 1 -10
-4 0 -6 6 -11 13 -11 8 0 7 -4 -3 -10 -13 -8 -12 -10 4 -10 13 0 17 -5 13 -20
-3 -11 -2 -18 3 -15 4 3 13 -2 20 -10 11 -13 10 -14 -6 -9 -19 7 -19 6 0 -8
10 -8 16 -20 12 -26 -3 -6 1 -18 10 -26 9 -9 13 -23 10 -31 -3 -10 0 -12 11
-8 13 5 14 3 4 -16 -10 -17 -9 -22 4 -27 8 -3 12 -10 9 -15 -3 -5 0 -9 7 -9 8
0 8 -4 -1 -15 -7 -8 -8 -15 -3 -15 12 0 14 -38 2 -45 -5 -4 -9 -1 -9 6 0 6 -8
9 -19 6 -13 -3 -18 0 -15 8 3 7 -7 25 -23 41 -15 15 -20 22 -10 14 9 -7 20
-10 23 -8 3 3 -8 12 -25 19 -16 7 -32 21 -34 31 -3 10 -14 18 -27 18 -16 0
-20 4 -16 15 3 8 2 15 -2 16 -4 0 -15 2 -24 4 -9 2 -19 -4 -22 -12 -3 -8 -1
-11 4 -8 13 8 13 -1 0 -25 -7 -13 -7 -21 2 -26 7 -5 8 -3 3 6 -5 9 -4 11 3 6
7 -4 8 -15 2 -30 -6 -17 -4 -28 8 -41 9 -10 12 -15 6 -12 -7 4 -11 -3 -11 -18
0 -14 2 -23 6 -21 3 2 6 -11 6 -29 0 -25 -3 -31 -12 -23 -9 7 -10 3 -4 -19 4
-15 6 -34 3 -42 -3 -9 0 -11 9 -7 8 4 5 0 -5 -8 -18 -15 -15 -20 9 -17 6 1 3
-5 -7 -12 -12 -9 -14 -18 -7 -30 8 -13 6 -17 -8 -17 -14 0 -15 -2 -4 -9 11 -7
11 -9 0 -14 -10 -4 -10 -6 -1 -6 6 -1 12 -6 12 -12 0 -5 -4 -8 -9 -5 -12 8 -8
-27 4 -36 6 -5 3 -8 -7 -8 -12 0 -16 -6 -13 -20 2 -12 -2 -23 -10 -27 -8 -3
-13 -9 -10 -13 7 -12 -24 -80 -40 -86 -7 -3 -11 -13 -8 -22 4 -14 3 -14 -5 -3
-6 8 -16 11 -24 8 -8 -3 -21 -1 -29 4 -12 7 -12 9 1 9 8 1 5 5 -8 11 -13 5
-20 13 -17 19 3 5 -1 10 -10 10 -11 0 -15 5 -11 15 3 8 0 14 -6 12 -7 -1 -13
4 -14 11 -1 6 -3 14 -4 17 -1 3 -3 9 -4 14 -2 19 -13 21 -26 6 -7 -8 -9 -15
-5 -15 4 0 2 -7 -5 -15 -11 -13 -10 -14 4 -9 11 4 16 0 17 -15 2 -36 4 -40 21
-60 12 -14 13 -22 5 -31 -9 -10 -9 -11 1 -6 8 5 12 -1 13 -18 2 -34 3 -37 15
-61 6 -11 10 -27 9 -35 -1 -8 6 -24 14 -34 12 -15 13 -17 2 -11 -11 6 -13 4
-7 -11 4 -10 9 -26 11 -34 2 -8 4 -17 5 -20 6 -14 4 -47 -2 -62 -4 -9 -3 -18
2 -20 6 -2 1 -9 -11 -16 -12 -8 -18 -9 -14 -3 3 6 2 11 -4 11 -14 0 -42 43
-44 68 0 12 -5 18 -9 16 -7 -5 -13 26 -9 49 0 4 -4 7 -10 7 -6 0 -8 7 -5 18 7
16 6 16 -10 0 -15 -15 -15 -19 -3 -34 9 -12 10 -15 2 -10 -7 4 -13 2 -13 -3 0
-6 4 -11 10 -11 5 0 14 -10 20 -22 10 -21 10 -21 -3 -5 -19 23 -30 22 -17 -3
6 -11 8 -20 4 -20 -3 0 0 -8 7 -17 12 -15 12 -16 -5 -10 -16 7 -17 5 -6 -9 12
-13 11 -17 -1 -25 -11 -7 -10 -9 6 -9 17 0 17 -2 5 -10 -13 -9 -13 -10 0 -10
13 0 13 -2 1 -9 -21 -13 -24 -44 -4 -37 12 5 13 4 5 -7 -7 -8 -9 -17 -5 -20 3
-4 1 -7 -7 -7 -10 0 -10 -4 1 -17 8 -9 9 -14 3 -10 -16 9 -24 -49 -10 -64 8
-9 6 -10 -8 -5 -18 6 -19 5 -4 -11 8 -10 13 -24 10 -32 -3 -10 0 -11 9 -5 11
6 12 5 2 -8 -14 -16 -8 -28 10 -24 7 2 9 1 4 -1 -4 -3 -5 -9 -1 -14 3 -5 0 -9
-7 -9 -9 0 -9 -3 0 -14 6 -7 8 -22 4 -31 -4 -12 -3 -16 5 -11 8 5 10 -10 8
-54 -2 -33 -1 -58 3 -56 4 3 7 -4 7 -14 0 -10 -4 -16 -8 -14 -5 3 -6 -10 -3
-29 4 -22 1 -38 -6 -43 -8 -5 -9 -3 -4 6 5 9 4 11 -4 6 -8 -5 -9 -12 -2 -20 7
-8 4 -12 -10 -13 -11 -1 -17 2 -14 6 2 5 -8 7 -23 5 -14 -1 -32 2 -38 7 -8 7
-11 4 -10 -8 1 -19 -24 -25 -36 -8 -5 6 -8 3 -8 -7 0 -9 -5 -20 -12 -24 -7 -5
-9 -2 -4 7 4 8 1 6 -8 -5 -8 -10 -22 -16 -30 -13 -10 4 -13 1 -9 -9 3 -9 -1
-14 -12 -14 -9 0 -14 -4 -11 -9 3 -5 -5 -17 -19 -27 -13 -10 -21 -22 -18 -28
4 -5 0 -7 -8 -4 -21 8 -23 -37 -2 -53 14 -12 16 -12 8 0 -6 11 -3 13 13 9 12
-4 20 -3 17 1 -8 13 21 45 34 37 6 -4 9 -11 6 -16 -3 -4 4 -6 14 -3 13 3 18
11 14 21 -4 15 -3 15 6 2 11 -16 40 -20 58 -7 6 4 14 3 19 -4 5 -8 3 -9 -6 -4
-8 5 -11 4 -6 -3 4 -6 14 -8 23 -5 12 5 14 3 8 -8 -8 -12 -6 -12 8 0 15 12 17
11 17 -8 0 -11 4 -21 9 -21 12 0 56 -43 56 -55 0 -6 -10 -24 -23 -40 -13 -17
-21 -24 -17 -18 4 8 1 11 -7 8 -18 -7 -20 -45 -5 -64 9 -12 9 -13 0 -8 -9 6
-8 -3 2 -28 9 -19 12 -35 8 -35 -5 0 -3 -4 2 -8 18 -13 36 -52 24 -52 -5 0 -7
-5 -4 -10 4 -6 10 -8 14 -6 3 3 7 -4 7 -15 0 -25 -44 -38 -57 -18 -7 11 -9 10
-9 -4 0 -10 -4 -16 -9 -13 -5 4 -17 3 -26 0 -11 -5 -13 -9 -5 -14 8 -5 7 -12
-5 -23 -15 -16 -14 -16 14 -13 21 2 31 -1 31 -10 0 -8 5 -14 10 -14 30 0 51
-21 38 -37 -7 -8 -3 -10 14 -6 18 4 20 3 8 -6 -10 -7 -11 -11 -2 -11 6 0 12
-7 12 -16 0 -8 5 -12 10 -9 9 6 14 -8 11 -27 0 -5 6 -8 14 -8 8 0 15 -3 14 -7
-2 -16 14 -53 22 -53 5 0 9 -7 9 -15 0 -8 5 -15 11 -15 5 0 7 -5 4 -11 -4 -5
0 -18 7 -27 25 -29 33 -46 17 -38 -8 4 -6 1 4 -7 14 -11 15 -16 5 -20 -9 -4
-7 -6 4 -6 9 -1 20 -6 24 -13 5 -8 2 -9 -9 -5 -22 8 -22 7 8 -33 13 -18 21
-38 18 -43 -4 -6 0 -8 10 -4 9 3 16 3 16 -1 -3 -20 2 -33 11 -27 6 3 11 -1 11
-9 3 -30 4 -34 13 -43 5 -5 6 -2 2 7 -5 9 -2 8 7 -2 8 -10 17 -15 21 -11 4 4
4 0 0 -10 -4 -11 0 -19 12 -24 11 -4 26 -14 34 -22 8 -9 27 -22 42 -30 15 -8
24 -19 21 -25 -4 -6 2 -4 13 4 10 8 16 10 12 6 -9 -11 40 -38 53 -30 5 3 9 1
9 -4 0 -5 9 -12 20 -15 11 -3 20 -1 20 5 0 5 6 6 12 1 19 -11 138 -10 138 2 0
6 4 4 9 -4 7 -10 13 -11 30 -2 16 9 21 9 21 -1 0 -10 2 -10 9 1 5 7 13 11 19
7 6 -3 14 -1 18 5 5 8 3 9 -7 4 -8 -5 -10 -4 -6 0 11 13 37 15 37 4 0 -6 5 -7
10 -4 6 4 8 10 5 15 -3 5 4 7 16 5 12 -3 27 -1 33 3 6 4 16 7 21 7 6 1 9 7 7
15 -3 11 0 11 12 1 9 -7 13 -17 10 -22 -3 -5 2 -6 10 -3 12 4 16 0 16 -16 0
-13 4 -19 11 -14 7 4 6 -2 -2 -17 -11 -21 -10 -22 2 -12 12 10 15 8 16 -8 1
-12 -2 -17 -10 -12 -7 3 -3 -4 8 -17 13 -15 15 -21 5 -16 -10 5 -10 3 2 -6 15
-13 15 -15 0 -25 -15 -10 -15 -11 3 -10 12 1 19 -4 18 -13 -1 -8 15 -28 35
-45 20 -16 32 -24 28 -16 -7 10 -4 10 15 -1 13 -8 43 -14 65 -14 32 1 40 -2
37 -14 -4 -13 -2 -12 9 1 9 11 21 13 40 8 20 -5 25 -4 22 6 -5 12 12 14 36 5
7 -3 47 -7 88 -8 19 -1 31 -6 27 -12 -3 -6 1 -7 9 -4 9 3 13 11 10 18 -3 6 0
4 8 -4 11 -12 42 -15 165 -15 104 0 149 3 143 10 -6 7 -2 11 10 11 10 0 16 -5
13 -10 -4 -5 -1 -6 8 0 11 7 114 14 212 15 9 0 17 4 17 10 0 5 5 9 11 9 5 0 7
-6 3 -12 -5 -8 -1 -8 10 1 9 8 42 16 73 17 65 3 87 10 78 24 -3 5 -1 10 6 10
9 0 9 3 0 14 -14 17 2 32 21 20 6 -4 8 -3 4 4 -3 6 -1 14 5 18 7 4 9 3 6 -3
-4 -6 0 -16 8 -23 8 -7 12 -17 8 -23 -3 -6 -1 -7 5 -3 7 4 12 2 12 -4 0 -6 5
-8 10 -5 6 3 10 -2 10 -12 0 -15 2 -16 10 -3 8 12 10 12 10 -5 0 -15 2 -17 9
-6 6 9 11 10 15 2 4 -6 23 -10 42 -8 20 3 34 0 34 -6 0 -7 4 -7 12 1 8 8 15 9
25 1 9 -8 13 -8 13 -1 0 6 10 9 22 7 12 -3 31 3 41 13 15 12 21 14 24 4 3 -6
9 -10 14 -6 5 3 9 -2 9 -10 0 -10 6 -13 15 -10 8 4 13 10 10 14 -3 5 -1 11 5
15 6 4 8 11 5 16 -5 8 24 14 48 10 4 0 7 5 7 12 0 8 4 7 10 -3 6 -10 10 -11
10 -2 0 6 5 12 11 12 5 0 7 -4 4 -10 -3 -6 1 -7 9 -4 9 3 14 10 11 14 -3 4 6
15 20 24 27 18 39 21 30 7 -3 -5 4 -12 15 -16 11 -4 18 -10 15 -15 -3 -4 4 -6
15 -3 11 3 20 10 20 15 0 5 -4 7 -9 4 -4 -3 -7 6 -5 19 1 17 -3 25 -13 25 -9
0 -13 6 -10 14 3 7 2 17 -3 22 -5 5 -2 18 6 28 8 12 14 15 14 7 0 -11 3 -11
18 0 9 7 14 9 10 5 -4 -5 6 -20 24 -32 29 -22 32 -22 44 -7 10 14 9 20 -5 31
-9 7 -11 11 -4 8 6 -4 15 -1 19 5 4 7 3 9 -3 6 -11 -7 -53 28 -53 43 0 5 -8 6
-17 3 -13 -5 -15 -3 -9 13 5 15 4 16 -5 7 -14 -14 -39 -6 -39 13 0 8 -7 14
-15 14 -9 0 -18 7 -22 16 -5 13 -7 13 -14 2 -7 -10 -9 -9 -9 5 0 10 -8 17 -21
17 -11 0 -17 5 -14 10 8 13 -18 8 -27 -5 -5 -6 -8 -6 -8 1 0 7 -7 15 -16 18
-8 3 -13 2 -10 -3 3 -5 -1 -12 -10 -15 -11 -4 -15 -2 -11 7 3 8 -1 14 -9 14
-7 0 -11 -4 -8 -9 8 -13 -9 -9 -30 7 -14 11 -16 15 -5 15 11 0 12 2 1 9 -8 5
-15 20 -15 35 -2 19 -6 25 -17 21 -8 -4 -11 -3 -7 1 4 4 1 14 -6 22 -9 13 -9
14 1 8 6 -4 12 -2 12 3 0 6 -5 11 -11 11 -6 0 -9 7 -6 15 4 8 1 17 -5 21 -7 5
-8 2 -3 -6 5 -9 4 -11 -4 -6 -9 6 -9 11 0 22 8 10 8 14 0 14 -6 0 -10 3 -10 8
4 25 -2 42 -13 36 -9 -5 -9 -2 1 9 9 12 10 17 2 17 -7 0 -10 4 -7 8 3 5 -1 21
-9 36 -8 14 -10 24 -5 21 17 -11 11 7 -7 22 -11 8 -12 11 -3 7 12 -6 13 -5 4
7 -6 8 -10 22 -9 31 2 10 -1 18 -6 18 -5 0 -9 5 -9 11 0 5 6 7 13 3 6 -4 1 6
-13 22 -14 15 -17 22 -7 15 15 -12 17 -12 11 3 -3 9 -11 16 -16 16 -6 0 -5 6
2 15 7 8 8 15 3 15 -5 0 -9 9 -10 20 -1 11 2 18 7 15 6 -3 7 1 4 9 -3 9 -9 14
-13 11 -4 -2 -8 2 -8 10 0 8 3 12 7 10 3 -2 6 5 6 16 0 11 -5 18 -11 15 -7 -2
-12 2 -12 10 0 7 3 11 7 9 4 -2 7 2 7 10 0 8 -4 12 -9 9 -4 -3 -8 2 -8 10 0 9
6 16 13 16 8 0 8 3 -2 9 -13 8 -13 12 0 27 11 15 12 16 0 9 -11 -6 -13 -3 -8
16 4 14 0 37 -8 52 -9 19 -10 29 -3 33 7 4 8 2 4 -4 -4 -7 -2 -12 3 -12 6 0
11 5 11 11 0 6 7 9 15 5 8 -3 19 2 24 12 6 9 11 12 11 6 0 -5 14 -9 30 -8 26
2 29 0 19 -12 -14 -17 2 -19 20 -1 10 8 12 8 7 0 -3 -6 -3 -14 2 -17 5 -3 9 0
10 7 7 56 6 72 -5 72 -7 0 -12 5 -10 10 1 6 5 9 10 7 4 -1 7 2 7 8 0 5 -5 10
-11 10 -5 0 -7 5 -4 10 3 6 1 10 -6 10 -7 0 -9 3 -6 6 3 4 2 15 -3 25 -8 15
-7 17 10 14 11 -2 18 0 15 6 -4 5 -2 9 4 9 5 0 11 -5 13 -11 2 -7 11 0 21 14
15 24 15 26 -1 39 -16 12 -16 11 -2 -7 14 -18 14 -19 -2 -7 -10 8 -20 22 -23
32 -3 10 -13 21 -22 24 -14 6 -14 4 -2 -11 13 -17 12 -17 -4 -4 -10 8 -23 24
-29 35 -10 20 -10 20 7 6 17 -14 17 -14 7 7 -13 24 -4 36 18 23 7 -4 23 -5 34
-1 23 9 49 4 42 -8 -3 -4 6 -7 19 -7 16 0 21 4 17 15 -3 9 -1 12 6 7 6 -3 14
-2 17 4 4 6 3 10 -2 9 -20 -3 -27 2 -13 11 13 8 13 10 -2 10 -11 0 -15 5 -12
14 3 8 0 17 -7 22 -8 5 -10 3 -4 -6 5 -8 4 -11 -3 -6 -6 4 -9 13 -6 20 3 7 -9
24 -25 37 -17 13 -31 29 -31 35 0 6 -8 18 -17 25 -17 13 -17 12 -4 -6 8 -11
-1 -4 -20 15 -22 22 -31 38 -25 42 6 4 12 3 14 -2 2 -6 11 -6 23 0 13 8 19 7
19 0 0 -8 6 -8 20 0 11 6 25 8 30 5 6 -4 13 1 16 9 3 9 10 16 16 16 5 0 6 -6
2 -12 -6 -10 -4 -10 7 0 16 15 33 16 23 0 -4 -7 -3 -8 4 -4 7 4 12 15 13 24 0
14 2 13 9 -3 5 -11 9 -14 9 -6 1 8 7 11 17 7 8 -3 13 -2 11 2 -3 4 1 12 8 19
10 10 15 9 19 -4 6 -14 9 -13 22 6 13 17 19 20 30 10 13 -11 18 -4 16 22 -1 3
5 6 13 6 7 0 11 -7 8 -16 -2 -9 2 -5 10 8 11 18 16 20 20 10 4 -11 6 -11 6 1
1 8 10 21 22 28 12 8 18 9 14 3 -3 -6 -2 -11 3 -11 6 0 13 11 16 24 4 15 13
23 23 22 11 0 17 5 15 13 -3 12 -1 12 14 0 16 -12 17 -12 11 4 -6 15 3 22 25
18 4 0 10 10 14 24 3 14 11 22 17 18 6 -3 7 -1 3 5 -4 7 6 25 24 42 31 31 39
46 18 35 -7 -4 -2 3 12 14 21 18 22 20 5 16 -16 -5 -16 -3 2 6 17 9 22 19 18
36 -3 19 -1 22 9 14 10 -8 12 -4 11 19 -1 17 2 30 6 30 5 0 6 7 3 15 -4 9 0
15 7 15 11 0 11 3 -1 10 -13 8 -13 10 2 10 15 0 16 4 8 26 -7 16 -7 23 0 19 6
-3 10 3 10 15 0 13 -4 19 -12 14 -7 -4 -8 -3 -4 5 4 6 12 8 18 5 7 -5 9 4 6
25 -2 17 0 31 5 31 5 0 4 6 -2 14 -8 10 -9 16 -1 21 6 3 8 11 5 16 -3 5 2 6
11 2 12 -4 15 -3 10 5 -4 7 -3 12 3 12 6 0 8 6 5 14 -3 8 0 17 7 22 8 4 10 3
5 -4 -4 -7 -5 -12 -2 -12 2 0 11 14 20 30 8 17 10 28 5 25 -5 -4 -9 -2 -9 3 0
6 8 13 18 17 16 7 15 8 -3 15 -19 8 -19 9 -1 9 19 1 19 2 1 21 -17 18 -17 20
-2 14 9 -3 17 -4 17 0 0 7 -63 41 -72 38 -5 -1 -8 3 -8 10 0 6 -7 3 -15 -8 -8
-10 -15 -14 -15 -8 0 13 -59 6 -79 -10 -11 -8 -13 -8 -7 2 4 6 2 12 -3 12 -6
0 -11 -5 -11 -11 0 -6 -7 -8 -16 -5 -12 5 -15 2 -10 -10 5 -13 3 -14 -6 -6
-11 8 -13 3 -12 -26 1 -20 7 -38 13 -40 6 -2 11 -8 11 -13 0 -6 -4 -7 -10 -4
-5 3 -7 0 -4 -8 8 -21 -23 -29 -42 -10 -13 14 -17 14 -25 2 -7 -12 -9 -12 -9
0 0 11 -3 11 -17 0 -9 -8 -14 -9 -10 -3 4 7 -2 14 -13 17 -11 3 -18 1 -15 -3
3 -5 1 -11 -5 -15 -5 -3 -10 -1 -10 5 0 6 -4 8 -10 5 -5 -3 -10 0 -10 7 0 9
-3 9 -10 -2 -9 -13 -10 -13 -10 0 0 13 -1 13 -10 0 -8 -12 -10 -12 -10 5 0 11
-4 16 -8 10 -12 -16 -56 -39 -46 -24 5 9 2 10 -11 5 -14 -5 -15 -4 -7 7 8 10
6 13 -8 13 -10 0 -17 -3 -14 -7 2 -4 -3 -10 -12 -13 -8 -3 -12 -2 -9 4 3 6 2
10 -4 10 -5 0 -12 -8 -14 -17 -4 -16 -5 -16 -6 -1 -1 14 -6 15 -31 8 -16 -5
-30 -6 -30 -2 0 4 -5 0 -10 -8 -5 -8 -10 -10 -10 -3 0 6 -9 9 -22 5 -16 -4
-19 -2 -13 8 6 9 4 11 -4 6 -7 -5 -10 -15 -6 -24 5 -13 1 -12 -15 3 -20 19
-21 19 -14 -1 7 -16 6 -17 -8 -6 -13 10 -17 10 -21 0 -5 -15 -55 -16 -77 -2
-8 5 -21 20 -29 34 -13 24 -13 24 4 10 17 -14 18 -14 6 8 -7 12 -16 20 -21 17
-5 -3 -12 0 -16 6 -5 8 -3 9 6 4 9 -5 11 -3 6 6 -3 8 -9 22 -12 32 -4 9 -11
17 -18 17 -6 0 -4 5 4 10 13 9 13 10 0 11 -8 1 -18 1 -21 1 -3 -1 -6 6 -6 14
0 8 4 14 9 14 4 0 8 -5 8 -12 0 -6 3 -8 6 -5 4 4 2 12 -4 20 -9 10 -4 13 23
14 23 0 32 -3 28 -11 -4 -6 1 -5 10 3 9 7 17 10 17 6 0 -4 7 -2 15 5 12 10 16
9 21 -4 5 -12 10 -14 19 -6 6 5 15 8 18 5 4 -3 5 -2 2 2 -3 3 0 12 7 20 9 11
7 15 -11 20 -17 4 -19 8 -9 14 10 7 9 9 -4 9 -11 0 -18 8 -18 21 0 11 -4 18
-9 14 -6 -3 -16 2 -23 10 -7 9 -21 24 -31 35 -18 18 -18 18 3 25 20 6 21 7 3
21 -13 11 -14 14 -3 12 11 -2 14 4 12 21 -3 17 0 21 10 15 10 -6 11 -5 2 7 -8
10 -9 21 -1 39 14 34 17 201 3 219 -9 12 -8 13 3 6 11 -6 10 -2 -2 15 -13 19
-14 27 -4 39 10 12 9 13 -2 7 -10 -7 -12 -3 -6 13 4 14 2 21 -7 21 -10 0 -9 3
2 10 12 8 12 10 -5 11 l-20 0 20 9 c20 9 20 9 0 9 -14 1 -21 8 -21 20 0 11 3
18 6 16 4 -2 7 2 7 10 0 8 -5 13 -11 12 -6 -1 -10 4 -8 11 1 6 -2 12 -8 12 -5
0 -9 3 -9 8 4 27 -3 41 -21 39 -12 -1 -23 -3 -25 -5z m900 -832 c3 -5 1 -10
-4 -10 -6 0 -11 5 -11 10 0 6 2 10 4 10 3 0 8 -4 11 -10z m-3188 -107 c-4 -3
-1 -13 6 -22 11 -14 10 -14 -5 -2 -16 12 -16 31 -1 31 4 0 3 -3 0 -7z m33 -95
c0 -4 -4 -8 -9 -8 -6 0 -12 4 -15 8 -3 5 1 9 9 9 8 0 15 -4 15 -9z m1590 -838
c0 -5 -5 -10 -11 -10 -5 0 -7 5 -4 10 3 6 8 10 11 10 2 0 4 -4 4 -10z m-1127
-75 c-3 -9 -8 -14 -10 -11 -3 3 -2 9 2 15 9 16 15 13 8 -4z m-783 -219 c0 -3
-4 -8 -10 -11 -5 -3 -10 -1 -10 4 0 6 5 11 10 11 6 0 10 -2 10 -4z m2680 -96
c0 -5 -2 -10 -4 -10 -3 0 -8 5 -11 10 -3 6 -1 10 4 10 6 0 11 -4 11 -10z
m-1276 -218 c3 -5 -1 -9 -9 -9 -8 0 -12 4 -9 9 3 4 7 8 9 8 2 0 6 -4 9 -8z
m926 -337 c11 0 15 -11 14 -42 -1 -34 2 -43 15 -43 9 0 12 -3 6 -8 -14 -10
-18 -52 -5 -52 6 0 8 -4 5 -10 -3 -5 -1 -10 6 -10 7 0 9 -3 6 -7 -4 -3 0 -17
8 -30 18 -27 9 -31 -12 -5 -12 15 -13 14 -1 -8 7 -14 11 -28 10 -32 -1 -5 2
-8 8 -8 5 0 7 -7 4 -15 -4 -8 -1 -15 5 -15 6 0 11 -5 11 -11 0 -5 -4 -7 -10
-4 -6 3 -7 -1 -4 -9 3 -9 11 -16 18 -16 6 0 12 -9 13 -20 1 -11 -3 -20 -8 -20
-6 0 -7 -5 -3 -12 9 -14 12 -58 4 -53 -4 2 -36 5 -73 6 -37 1 -70 6 -73 11 -3
5 -11 5 -17 1 -7 -5 -43 -9 -82 -8 -38 0 -73 -4 -77 -10 -5 -6 -8 -6 -8 1 0 6
-13 9 -31 6 -22 -3 -30 -1 -25 7 4 6 2 11 -5 11 -10 0 -10 3 -2 11 6 6 9 18 6
27 -4 8 -2 13 3 10 12 -7 78 62 82 85 4 22 37 57 55 57 8 0 7 4 -3 10 -13 8
-12 10 3 10 10 0 15 5 12 10 -3 6 1 10 9 10 8 0 18 5 22 12 5 7 3 8 -7 3 -12
-7 -11 -5 1 11 7 10 21 25 29 32 10 8 11 12 3 12 -10 0 -10 5 -2 20 6 11 15
18 20 15 6 -4 7 1 3 11 -4 12 -3 15 5 10 8 -5 12 1 12 18 0 14 5 26 11 26 5 0
7 5 3 12 -5 7 -3 8 7 2 8 -5 21 -9 29 -9z m140 -455 c0 -5 -2 -10 -4 -10 -3 0
-8 5 -11 10 -3 6 -1 10 4 10 6 0 11 -4 11 -10z m665 -28 c-3 -3 -11 0 -18 7
-9 10 -8 11 6 5 10 -3 15 -9 12 -12z m-673 -67 c-8 -16 -9 -16 -15 -1 -4 10
-3 15 3 11 6 -3 10 -1 10 6 0 7 3 10 6 6 3 -3 2 -13 -4 -22z"/>
<path d="M1575 2241 c-3 -5 -2 -12 3 -15 5 -3 9 1 9 9 0 17 -3 19 -12 6z"/>
<path d="M3210 1999 c0 -5 5 -7 10 -4 6 3 10 8 10 11 0 2 -4 4 -10 4 -5 0 -10
-5 -10 -11z"/>
<path d="M3055 1920 c-3 -5 -1 -10 4 -10 6 0 11 5 11 10 0 6 -2 10 -4 10 -3 0
-8 -4 -11 -10z"/>
<path d="M293 1325 c0 -8 4 -12 9 -9 5 3 6 10 3 15 -9 13 -12 11 -12 -6z"/>
<path d="M950 736 c0 -2 8 -10 18 -17 15 -13 16 -12 3 4 -13 16 -21 21 -21 13z"/>
<path d="M3190 279 c0 -5 5 -7 10 -4 6 3 10 8 10 11 0 2 -4 4 -10 4 -5 0 -10
-5 -10 -11z"/>
</g>
</svg>
